# xmcd
#
# Track frame offsets: 
#        150
#        13237
#        45826
#        59752
#        78340
#        93917
#        106487
#        123792
#        138172
#        155364
#        170165
#        181981
#        195691
#        209940
#        221840
#        235338
#        248746
#        260977
#        274840
#        301978
#
# Disc length: 4210 seconds
#
# Revision: 0
# Processed by: cddbd v1.5.2PL0 Copyright (c) Steve Scherf et al.
# Submitted via: ExactAudioCopyFreeDBPlugin 1.0
#
DISCID=2a107014
DTITLE=Various Artist - Lost Deep Soul Treasures [S.O.S. Sounds of So
DTITLE=ul]
DYEAR=2001
DGENRE=Soul
TTITLE0=Roberta DuBois and The Sisters of Righteous - Hold On to What Yo
TTITLE0=u Got
TTITLE1=Mighty Sam (McClain) - A Soul That's Been Abused
TTITLE2=The Diplomats - I'm So Glad I Found You
TTITLE3=G.H. Franklin - Satisfied
TTITLE4=Rudy Mockabee - Think About It
TTITLE5=Bobby Adams and The Serenaders - All Alone
TTITLE6=Darryl Carter - Crying
TTITLE7=Willie B - I Trusted in You
TTITLE8=Phil Flowers - Cry on My Shoulder
TTITLE9=Ike Noble - It's Bad
TTITLE10=Gladys Patrick - Losing Comes
TTITLE11=The Electrifying Cashmeres - Ooh I Love You
TTITLE12=Irene Reid - I'm Too Far Gone to Turn Around
TTITLE13=Ray Charles - I Wonder
TTITLE14=The Magics - If I Didn't Have You
TTITLE15=Charles Spurling - Don't Let Him Hurt You Baby
TTITLE16=Joe Tex - Goodbye My Love
TTITLE17=William Stuckey - You Can Count on Me
TTITLE18=Nappy Brown - Don't Hurt No More
TTITLE19=Little Charles and The Sidewinders - You're a Blessing
EXTD=
EXTT0=
EXTT1=
EXTT2=
EXTT3=
EXTT4=
EXTT5=
EXTT6=
EXTT7=
EXTT8=
EXTT9=
EXTT10=
EXTT11=
EXTT12=
EXTT13=
EXTT14=
EXTT15=
EXTT16=
EXTT17=
EXTT18=
EXTT19=
PLAYORDER=
